<?xml version="1.0" encoding="utf-8"?>
<svg width="154px" height="231px" viewBox="0 0 154 231" version="1.1" xmlns:xlink="http://www.w3.org/1999/xlink" xmlns="http://www.w3.org/2000/svg">
  <defs>
    <path d="M0 0L154 0L154 154L0 154L0 0Z" id="path_1" />
    <clipPath id="mask_1">
      <use xlink:href="#path_1" />
    </clipPath>
  </defs>
  <g id="Group">
    <path d="M0 0L154 0L154 231L0 231L0 0Z" id="Rectangle" fill="#000000" fill-rule="evenodd" stroke="none" />
    <g id="no_image_holder" transform="translate(0 38)">
      <path d="M0 0L154 0L154 154L0 154L0 0Z" id="Background" fill="none" fill-rule="evenodd" stroke="none" />
      <g clip-path="url(#mask_1)">
        <path d="M132.344 24.0625L21.6563 24.0625C17.6695 24.0627 14.4377 27.2945 14.4375 31.2813L14.4375 122.719C14.4375 126.705 17.6691 129.937 21.6559 129.938L132.344 129.938C136.33 129.937 139.562 126.705 139.563 122.719L139.563 31.2813C139.563 27.2949 136.331 24.0629 132.344 24.0625L132.344 24.0625ZM125.125 89.0313L102.053 63.8614C101.17 62.886 99.9249 62.3171 98.6099 62.2885C97.2948 62.26 96.0261 62.7743 95.1021 63.7104L69.3677 89.4448L95.4228 115.5L81.8125 115.5L58.7466 92.4337C56.867 90.555 53.8205 90.555 51.9409 92.4337L28.875 115.5L28.875 38.5L125.125 38.5L125.125 89.0313ZM38.9813 60.1563C38.9774 53.7843 44.1454 48.6101 50.5243 48.6062C56.9032 48.6024 62.0774 53.7704 62.0812 60.1493C62.0851 66.5282 56.9171 71.7024 50.5382 71.7062C47.4738 71.708 44.5342 70.492 42.3667 68.3257C40.1992 66.1595 38.9813 63.2207 38.9813 60.1563L38.9813 60.1563Z" id="picture" fill="#B5B5B5" fill-rule="evenodd" stroke="none" />
      </g>
    </g>
  </g>
</svg>